<?xml version="1.0" encoding="UTF-8"?>
<svg xmlns="http://www.w3.org/2000/svg" xmlns:xlink="http://www.w3.org/1999/xlink" width="1440pt" height="809.999993pt" viewBox="0 0 1440 809.999993" version="1.2">
<defs>
<clipPath id="clip1">
  <path d="M 115 486 L 769 486 L 769 810 L 115 810 Z M 115 486 "/>
</clipPath>
<clipPath id="clip2">
  <path d="M 151.085938 461.484375 L 1021.878906 541.910156 L 984.910156 942.203125 L 114.117188 861.777344 Z M 151.085938 461.484375 "/>
</clipPath>
<clipPath id="clip3">
  <path d="M 1021.707031 541.890625 L 150.910156 461.464844 L 113.941406 861.761719 L 984.734375 942.1875 Z M 1021.707031 541.890625 "/>
</clipPath>
<clipPath id="clip4">
  <path d="M 787.667969 519.660156 L 150.6875 460.828125 L 113.5625 862.757812 L 750.546875 921.589844 Z M 787.667969 519.660156 "/>
</clipPath>
<clipPath id="clip5">
  <path d="M 787.667969 519.660156 L 152.320312 460.980469 L 115.300781 861.808594 L 750.648438 920.488281 Z M 787.667969 519.660156 "/>
</clipPath>
<clipPath id="clip6">
  <path d="M 568 718 L 707 718 L 707 810 L 568 810 Z M 568 718 "/>
</clipPath>
<clipPath id="clip7">
  <path d="M 151.085938 461.484375 L 1021.878906 541.910156 L 984.910156 942.203125 L 114.117188 861.777344 Z M 151.085938 461.484375 "/>
</clipPath>
<clipPath id="clip8">
  <path d="M 1021.707031 541.890625 L 150.910156 461.464844 L 113.941406 861.761719 L 984.734375 942.1875 Z M 1021.707031 541.890625 "/>
</clipPath>
<clipPath id="clip9">
  <path d="M 630 652 L 733 652 L 733 720 L 630 720 Z M 630 652 "/>
</clipPath>
<clipPath id="clip10">
  <path d="M 151.085938 461.484375 L 1021.878906 541.910156 L 984.910156 942.203125 L 114.117188 861.777344 Z M 151.085938 461.484375 "/>
</clipPath>
<clipPath id="clip11">
  <path d="M 1021.707031 541.890625 L 150.910156 461.464844 L 113.941406 861.761719 L 984.734375 942.1875 Z M 1021.707031 541.890625 "/>
</clipPath>
<clipPath id="clip12">
  <path d="M 547 593 L 984 593 L 984 810 L 547 810 Z M 547 593 "/>
</clipPath>
<clipPath id="clip13">
  <path d="M 151.085938 461.484375 L 1021.878906 541.910156 L 984.910156 942.203125 L 114.117188 861.777344 Z M 151.085938 461.484375 "/>
</clipPath>
<clipPath id="clip14">
  <path d="M 1021.707031 541.890625 L 150.910156 461.464844 L 113.941406 861.761719 L 984.734375 942.1875 Z M 1021.707031 541.890625 "/>
</clipPath>
<clipPath id="clip15">
  <path d="M 1013.628906 614.605469 L 576.722656 574.253906 L 546.386719 902.730469 L 983.289062 943.085938 Z M 1013.628906 614.605469 "/>
</clipPath>
<clipPath id="clip16">
  <path d="M 1013.628906 614.605469 L 576.722656 574.253906 L 546.488281 901.632812 L 983.390625 941.984375 Z M 1013.628906 614.605469 "/>
</clipPath>
<clipPath id="clip17">
  <path d="M 767 593 L 982 593 L 982 810 L 767 810 Z M 767 593 "/>
</clipPath>
<clipPath id="clip18">
  <path d="M 151.085938 461.484375 L 1021.878906 541.910156 L 984.910156 942.203125 L 114.117188 861.777344 Z M 151.085938 461.484375 "/>
</clipPath>
<clipPath id="clip19">
  <path d="M 1021.707031 541.890625 L 150.910156 461.464844 L 113.941406 861.761719 L 984.734375 942.1875 Z M 1021.707031 541.890625 "/>
</clipPath>
<clipPath id="clip20">
  <path d="M 816 778 L 981 778 L 981 810 L 816 810 Z M 816 778 "/>
</clipPath>
<clipPath id="clip21">
  <path d="M 151.085938 461.484375 L 1021.878906 541.910156 L 984.910156 942.203125 L 114.117188 861.777344 Z M 151.085938 461.484375 "/>
</clipPath>
<clipPath id="clip22">
  <path d="M 1021.707031 541.890625 L 150.910156 461.464844 L 113.941406 861.761719 L 984.734375 942.1875 Z M 1021.707031 541.890625 "/>
</clipPath>
<clipPath id="clip23">
  <path d="M 995.003906 793.957031 L 815.34375 777.363281 L 801.585938 926.300781 L 981.246094 942.894531 Z M 995.003906 793.957031 "/>
</clipPath>
<clipPath id="clip24">
  <path d="M 995.003906 793.957031 L 815.34375 777.363281 L 801.6875 925.203125 L 981.347656 941.796875 Z M 995.003906 793.957031 "/>
</clipPath>
<clipPath id="clip25">
  <path d="M 728 632 L 766 632 L 766 758 L 728 758 Z M 728 632 "/>
</clipPath>
<clipPath id="clip26">
  <path d="M 151.085938 461.484375 L 1021.878906 541.910156 L 984.910156 942.203125 L 114.117188 861.777344 Z M 151.085938 461.484375 "/>
</clipPath>
<clipPath id="clip27">
  <path d="M 1021.707031 541.890625 L 150.910156 461.464844 L 113.941406 861.761719 L 984.734375 942.1875 Z M 1021.707031 541.890625 "/>
</clipPath>
<clipPath id="clip28">
  <path d="M 593 781 L 706 781 L 706 810 L 593 810 Z M 593 781 "/>
</clipPath>
<clipPath id="clip29">
  <path d="M 151.085938 461.484375 L 1021.878906 541.910156 L 984.910156 942.203125 L 114.117188 861.777344 Z M 151.085938 461.484375 "/>
</clipPath>
<clipPath id="clip30">
  <path d="M 1021.707031 541.890625 L 150.910156 461.464844 L 113.941406 861.761719 L 984.734375 942.1875 Z M 1021.707031 541.890625 "/>
</clipPath>
<clipPath id="clip31">
  <path d="M 705.816406 781.652344 L 605.777344 772.414062 L 593.34375 907.070312 L 693.378906 916.308594 Z M 705.816406 781.652344 "/>
</clipPath>
<clipPath id="clip32">
  <path d="M 705.816406 781.652344 L 605.777344 772.414062 L 593.445312 905.96875 L 693.480469 915.207031 Z M 705.816406 781.652344 "/>
</clipPath>
<clipPath id="clip33">
  <path d="M 384 619 L 598 619 L 598 728 L 384 728 Z M 384 619 "/>
</clipPath>
<clipPath id="clip34">
  <path d="M 151.085938 461.484375 L 1021.878906 541.910156 L 984.910156 942.203125 L 114.117188 861.777344 Z M 151.085938 461.484375 "/>
</clipPath>
<clipPath id="clip35">
  <path d="M 1021.707031 541.890625 L 150.910156 461.464844 L 113.941406 861.761719 L 984.734375 942.1875 Z M 1021.707031 541.890625 "/>
</clipPath>
<clipPath id="clip36">
  <path d="M 504 715 L 537 715 L 537 746 L 504 746 Z M 504 715 "/>
</clipPath>
<clipPath id="clip37">
  <path d="M 151.085938 461.484375 L 1021.878906 541.910156 L 984.910156 942.203125 L 114.117188 861.777344 Z M 151.085938 461.484375 "/>
</clipPath>
<clipPath id="clip38">
  <path d="M 1021.707031 541.890625 L 150.910156 461.464844 L 113.941406 861.761719 L 984.734375 942.1875 Z M 1021.707031 541.890625 "/>
</clipPath>
<clipPath id="clip39">
  <path d="M 540 711 L 554 711 L 554 737 L 540 737 Z M 540 711 "/>
</clipPath>
<clipPath id="clip40">
  <path d="M 151.085938 461.484375 L 1021.878906 541.910156 L 984.910156 942.203125 L 114.117188 861.777344 Z M 151.085938 461.484375 "/>
</clipPath>
<clipPath id="clip41">
  <path d="M 1021.707031 541.890625 L 150.910156 461.464844 L 113.941406 861.761719 L 984.734375 942.1875 Z M 1021.707031 541.890625 "/>
</clipPath>
<clipPath id="clip42">
  <path d="M 507 736 L 535 736 L 535 756 L 507 756 Z M 507 736 "/>
</clipPath>
<clipPath id="clip43">
  <path d="M 151.085938 461.484375 L 1021.878906 541.910156 L 984.910156 942.203125 L 114.117188 861.777344 Z M 151.085938 461.484375 "/>
</clipPath>
<clipPath id="clip44">
  <path d="M 1021.707031 541.890625 L 150.910156 461.464844 L 113.941406 861.761719 L 984.734375 942.1875 Z M 1021.707031 541.890625 "/>
</clipPath>
<clipPath id="clip45">
  <path d="M 483 753 L 504 753 L 504 758 L 483 758 Z M 483 753 "/>
</clipPath>
<clipPath id="clip46">
  <path d="M 151.085938 461.484375 L 1021.878906 541.910156 L 984.910156 942.203125 L 114.117188 861.777344 Z M 151.085938 461.484375 "/>
</clipPath>
<clipPath id="clip47">
  <path d="M 1021.707031 541.890625 L 150.910156 461.464844 L 113.941406 861.761719 L 984.734375 942.1875 Z M 1021.707031 541.890625 "/>
</clipPath>
<clipPath id="clip48">
  <path d="M 468 728 L 503 728 L 503 746 L 468 746 Z M 468 728 "/>
</clipPath>
<clipPath id="clip49">
  <path d="M 151.085938 461.484375 L 1021.878906 541.910156 L 984.910156 942.203125 L 114.117188 861.777344 Z M 151.085938 461.484375 "/>
</clipPath>
<clipPath id="clip50">
  <path d="M 1021.707031 541.890625 L 150.910156 461.464844 L 113.941406 861.761719 L 984.734375 942.1875 Z M 1021.707031 541.890625 "/>
</clipPath>
<clipPath id="clip51">
  <path d="M 398 497 L 487 497 L 487 605 L 398 605 Z M 398 497 "/>
</clipPath>
<clipPath id="clip52">
  <path d="M 151.085938 461.484375 L 1021.878906 541.910156 L 984.910156 942.203125 L 114.117188 861.777344 Z M 151.085938 461.484375 "/>
</clipPath>
<clipPath id="clip53">
  <path d="M 1021.707031 541.890625 L 150.910156 461.464844 L 113.941406 861.761719 L 984.734375 942.1875 Z M 1021.707031 541.890625 "/>
</clipPath>
<clipPath id="clip54">
  <path d="M 263 556 L 370 556 L 370 682 L 263 682 Z M 263 556 "/>
</clipPath>
<clipPath id="clip55">
  <path d="M 151.085938 461.484375 L 1021.878906 541.910156 L 984.910156 942.203125 L 114.117188 861.777344 Z M 151.085938 461.484375 "/>
</clipPath>
<clipPath id="clip56">
  <path d="M 1021.707031 541.890625 L 150.910156 461.464844 L 113.941406 861.761719 L 984.734375 942.1875 Z M 1021.707031 541.890625 "/>
</clipPath>
<clipPath id="clip57">
  <path d="M 451 584 L 473 584 L 473 607 L 451 607 Z M 451 584 "/>
</clipPath>
<clipPath id="clip58">
  <path d="M 151.085938 461.484375 L 1021.878906 541.910156 L 984.910156 942.203125 L 114.117188 861.777344 Z M 151.085938 461.484375 "/>
</clipPath>
<clipPath id="clip59">
  <path d="M 1021.707031 541.890625 L 150.910156 461.464844 L 113.941406 861.761719 L 984.734375 942.1875 Z M 1021.707031 541.890625 "/>
</clipPath>
<clipPath id="clip60">
  <path d="M 437 570 L 450 570 L 450 584 L 437 584 Z M 437 570 "/>
</clipPath>
<clipPath id="clip61">
  <path d="M 151.085938 461.484375 L 1021.878906 541.910156 L 984.910156 942.203125 L 114.117188 861.777344 Z M 151.085938 461.484375 "/>
</clipPath>
<clipPath id="clip62">
  <path d="M 1021.707031 541.890625 L 150.910156 461.464844 L 113.941406 861.761719 L 984.734375 942.1875 Z M 1021.707031 541.890625 "/>
</clipPath>
<clipPath id="clip63">
  <path d="M 360 578 L 392 578 L 392 603 L 360 603 Z M 360 578 "/>
</clipPath>
<clipPath id="clip64">
  <path d="M 151.085938 461.484375 L 1021.878906 541.910156 L 984.910156 942.203125 L 114.117188 861.777344 Z M 151.085938 461.484375 "/>
</clipPath>
<clipPath id="clip65">
  <path d="M 1021.707031 541.890625 L 150.910156 461.464844 L 113.941406 861.761719 L 984.734375 942.1875 Z M 1021.707031 541.890625 "/>
</clipPath>
<clipPath id="clip66">
  <path d="M 374 522 L 385 522 L 385 558 L 374 558 Z M 374 522 "/>
</clipPath>
<clipPath id="clip67">
  <path d="M 151.085938 461.484375 L 1021.878906 541.910156 L 984.910156 942.203125 L 114.117188 861.777344 Z M 151.085938 461.484375 "/>
</clipPath>
<clipPath id="clip68">
  <path d="M 1021.707031 541.890625 L 150.910156 461.464844 L 113.941406 861.761719 L 984.734375 942.1875 Z M 1021.707031 541.890625 "/>
</clipPath>
<clipPath id="clip69">
  <path d="M 335 724 L 406 724 L 406 810 L 335 810 Z M 335 724 "/>
</clipPath>
<clipPath id="clip70">
  <path d="M 151.085938 461.484375 L 1021.878906 541.910156 L 984.910156 942.203125 L 114.117188 861.777344 Z M 151.085938 461.484375 "/>
</clipPath>
<clipPath id="clip71">
  <path d="M 1021.707031 541.890625 L 150.910156 461.464844 L 113.941406 861.761719 L 984.734375 942.1875 Z M 1021.707031 541.890625 "/>
</clipPath>
<clipPath id="clip72">
  <path d="M 406.484375 723.140625 L 349.320312 717.863281 L 334.058594 883.121094 L 391.222656 888.402344 Z M 406.484375 723.140625 "/>
</clipPath>
<clipPath id="clip73">
  <path d="M 406.484375 723.140625 L 349.320312 717.863281 L 334.160156 882.023438 L 391.324219 887.300781 Z M 406.484375 723.140625 "/>
</clipPath>
<clipPath id="clip74">
  <path d="M 189 681 L 311 681 L 311 810 L 189 810 Z M 189 681 "/>
</clipPath>
<clipPath id="clip75">
  <path d="M 151.085938 461.484375 L 1021.878906 541.910156 L 984.910156 942.203125 L 114.117188 861.777344 Z M 151.085938 461.484375 "/>
</clipPath>
<clipPath id="clip76">
  <path d="M 1021.707031 541.890625 L 150.910156 461.464844 L 113.941406 861.761719 L 984.734375 942.1875 Z M 1021.707031 541.890625 "/>
</clipPath>
<clipPath id="clip77">
  <path d="M 885 660 L 921 660 L 921 691 L 885 691 Z M 885 660 "/>
</clipPath>
<clipPath id="clip78">
  <path d="M 692.1875 361.792969 L 1690.0625 236.199219 L 1756.933594 767.503906 L 759.058594 893.101562 Z M 692.1875 361.792969 "/>
</clipPath>
<clipPath id="clip79">
  <path d="M 692.1875 361.792969 L 1690.0625 236.199219 L 1756.933594 767.503906 L 759.058594 893.101562 Z M 692.1875 361.792969 "/>
</clipPath>
<clipPath id="clip80">
  <path d="M 887 748 L 888 748 L 888 749 L 887 749 Z M 887 748 "/>
</clipPath>
<clipPath id="clip81">
  <path d="M 692.1875 361.792969 L 1690.0625 236.199219 L 1756.933594 767.503906 L 759.058594 893.101562 Z M 692.1875 361.792969 "/>
</clipPath>
<clipPath id="clip82">
  <path d="M 692.1875 361.792969 L 1690.0625 236.199219 L 1756.933594 767.503906 L 759.058594 893.101562 Z M 692.1875 361.792969 "/>
</clipPath>
<clipPath id="clip83">
  <path d="M 894 691 L 922 691 L 922 724 L 894 724 Z M 894 691 "/>
</clipPath>
<clipPath id="clip84">
  <path d="M 692.1875 361.792969 L 1690.0625 236.199219 L 1756.933594 767.503906 L 759.058594 893.101562 Z M 692.1875 361.792969 "/>
</clipPath>
<clipPath id="clip85">
  <path d="M 692.1875 361.792969 L 1690.0625 236.199219 L 1756.933594 767.503906 L 759.058594 893.101562 Z M 692.1875 361.792969 "/>
</clipPath>
<clipPath id="clip86">
  <path d="M 887 671 L 1046 671 L 1046 810 L 887 810 Z M 887 671 "/>
</clipPath>
<clipPath id="clip87">
  <path d="M 692.1875 361.792969 L 1690.0625 236.199219 L 1756.933594 767.503906 L 759.058594 893.101562 Z M 692.1875 361.792969 "/>
</clipPath>
<clipPath id="clip88">
  <path d="M 692.1875 361.792969 L 1690.0625 236.199219 L 1756.933594 767.503906 L 759.058594 893.101562 Z M 692.1875 361.792969 "/>
</clipPath>
<clipPath id="clip89">
  <path d="M 760 697 L 900 697 L 900 810 L 760 810 Z M 760 697 "/>
</clipPath>
<clipPath id="clip90">
  <path d="M 692.1875 361.792969 L 1690.0625 236.199219 L 1756.933594 767.503906 L 759.058594 893.101562 Z M 692.1875 361.792969 "/>
</clipPath>
<clipPath id="clip91">
  <path d="M 692.1875 361.792969 L 1690.0625 236.199219 L 1756.933594 767.503906 L 759.058594 893.101562 Z M 692.1875 361.792969 "/>
</clipPath>
<clipPath id="clip92">
  <path d="M 800 660 L 901 660 L 901 810 L 800 810 Z M 800 660 "/>
</clipPath>
<clipPath id="clip93">
  <path d="M 692.1875 361.792969 L 1690.0625 236.199219 L 1756.933594 767.503906 L 759.058594 893.101562 Z M 692.1875 361.792969 "/>
</clipPath>
<clipPath id="clip94">
  <path d="M 692.1875 361.792969 L 1690.0625 236.199219 L 1756.933594 767.503906 L 759.058594 893.101562 Z M 692.1875 361.792969 "/>
</clipPath>
<clipPath id="clip95">
  <path d="M 972 665 L 974 665 L 974 667 L 972 667 Z M 972 665 "/>
</clipPath>
<clipPath id="clip96">
  <path d="M 692.1875 361.792969 L 1690.0625 236.199219 L 1756.933594 767.503906 L 759.058594 893.101562 Z M 692.1875 361.792969 "/>
</clipPath>
<clipPath id="clip97">
  <path d="M 692.1875 361.792969 L 1690.0625 236.199219 L 1756.933594 767.503906 L 759.058594 893.101562 Z M 692.1875 361.792969 "/>
</clipPath>
<clipPath id="clip98">
  <path d="M 1100 300 L 1304 300 L 1304 682 L 1100 682 Z M 1100 300 "/>
</clipPath>
<clipPath id="clip99">
  <path d="M 692.1875 361.792969 L 1690.0625 236.199219 L 1756.933594 767.503906 L 759.058594 893.101562 Z M 692.1875 361.792969 "/>
</clipPath>
<clipPath id="clip100">
  <path d="M 692.1875 361.792969 L 1690.0625 236.199219 L 1756.933594 767.503906 L 759.058594 893.101562 Z M 692.1875 361.792969 "/>
</clipPath>
<clipPath id="clip101">
  <path d="M 1082 305 L 1180 305 L 1180 490 L 1082 490 Z M 1082 305 "/>
</clipPath>
<clipPath id="clip102">
  <path d="M 692.1875 361.792969 L 1690.0625 236.199219 L 1756.933594 767.503906 L 759.058594 893.101562 Z M 692.1875 361.792969 "/>
</clipPath>
<clipPath id="clip103">
  <path d="M 692.1875 361.792969 L 1690.0625 236.199219 L 1756.933594 767.503906 L 759.058594 893.101562 Z M 692.1875 361.792969 "/>
</clipPath>
<clipPath id="clip104">
  <path d="M 961 536 L 1035 536 L 1035 682 L 961 682 Z M 961 536 "/>
</clipPath>
<clipPath id="clip105">
  <path d="M 692.1875 361.792969 L 1690.0625 236.199219 L 1756.933594 767.503906 L 759.058594 893.101562 Z M 692.1875 361.792969 "/>
</clipPath>
<clipPath id="clip106">
  <path d="M 692.1875 361.792969 L 1690.0625 236.199219 L 1756.933594 767.503906 L 759.058594 893.101562 Z M 692.1875 361.792969 "/>
</clipPath>
<clipPath id="clip107">
  <path d="M 998 534 L 1037 534 L 1037 659 L 998 659 Z M 998 534 "/>
</clipPath>
<clipPath id="clip108">
  <path d="M 692.1875 361.792969 L 1690.0625 236.199219 L 1756.933594 767.503906 L 759.058594 893.101562 Z M 692.1875 361.792969 "/>
</clipPath>
<clipPath id="clip109">
  <path d="M 692.1875 361.792969 L 1690.0625 236.199219 L 1756.933594 767.503906 L 759.058594 893.101562 Z M 692.1875 361.792969 "/>
</clipPath>
<clipPath id="clip110">
  <path d="M 1093 408 L 1179 408 L 1179 522 L 1093 522 Z M 1093 408 "/>
</clipPath>
<clipPath id="clip111">
  <path d="M 692.1875 361.792969 L 1690.0625 236.199219 L 1756.933594 767.503906 L 759.058594 893.101562 Z M 692.1875 361.792969 "/>
</clipPath>
<clipPath id="clip112">
  <path d="M 692.1875 361.792969 L 1690.0625 236.199219 L 1756.933594 767.503906 L 759.058594 893.101562 Z M 692.1875 361.792969 "/>
</clipPath>
<clipPath id="clip113">
  <path d="M 1045 323 L 1179 323 L 1179 629 L 1045 629 Z M 1045 323 "/>
</clipPath>
<clipPath id="clip114">
  <path d="M 692.1875 361.792969 L 1690.0625 236.199219 L 1756.933594 767.503906 L 759.058594 893.101562 Z M 692.1875 361.792969 "/>
</clipPath>
<clipPath id="clip115">
  <path d="M 692.1875 361.792969 L 1690.0625 236.199219 L 1756.933594 767.503906 L 759.058594 893.101562 Z M 692.1875 361.792969 "/>
</clipPath>
<clipPath id="clip116">
  <path d="M 1011 354 L 1351 354 L 1351 810 L 1011 810 Z M 1011 354 "/>
</clipPath>
<clipPath id="clip117">
  <path d="M 692.1875 361.792969 L 1690.0625 236.199219 L 1756.933594 767.503906 L 759.058594 893.101562 Z M 692.1875 361.792969 "/>
</clipPath>
<clipPath id="clip118">
  <path d="M 692.1875 361.792969 L 1690.0625 236.199219 L 1756.933594 767.503906 L 759.058594 893.101562 Z M 692.1875 361.792969 "/>
</clipPath>
<clipPath id="clip119">
  <path d="M 848 581 L 1041 581 L 1041 810 L 848 810 Z M 848 581 "/>
</clipPath>
<clipPath id="clip120">
  <path d="M 692.1875 361.792969 L 1690.0625 236.199219 L 1756.933594 767.503906 L 759.058594 893.101562 Z M 692.1875 361.792969 "/>
</clipPath>
<clipPath id="clip121">
  <path d="M 692.1875 361.792969 L 1690.0625 236.199219 L 1756.933594 767.503906 L 759.058594 893.101562 Z M 692.1875 361.792969 "/>
</clipPath>
<clipPath id="clip122">
  <path d="M 1300 496 L 1346 496 L 1346 616 L 1300 616 Z M 1300 496 "/>
</clipPath>
<clipPath id="clip123">
  <path d="M 692.1875 361.792969 L 1690.0625 236.199219 L 1756.933594 767.503906 L 759.058594 893.101562 Z M 692.1875 361.792969 "/>
</clipPath>
<clipPath id="clip124">
  <path d="M 692.1875 361.792969 L 1690.0625 236.199219 L 1756.933594 767.503906 L 759.058594 893.101562 Z M 692.1875 361.792969 "/>
</clipPath>
<clipPath id="clip125">
  <path d="M 1247 514 L 1348 514 L 1348 635 L 1247 635 Z M 1247 514 "/>
</clipPath>
<clipPath id="clip126">
  <path d="M 692.1875 361.792969 L 1690.0625 236.199219 L 1756.933594 767.503906 L 759.058594 893.101562 Z M 692.1875 361.792969 "/>
</clipPath>
<clipPath id="clip127">
  <path d="M 692.1875 361.792969 L 1690.0625 236.199219 L 1756.933594 767.503906 L 759.058594 893.101562 Z M 692.1875 361.792969 "/>
</clipPath>
<clipPath id="clip128">
  <path d="M 1326 443 L 1370 443 L 1370 538 L 1326 538 Z M 1326 443 "/>
</clipPath>
<clipPath id="clip129">
  <path d="M 692.1875 361.792969 L 1690.0625 236.199219 L 1756.933594 767.503906 L 759.058594 893.101562 Z M 692.1875 361.792969 "/>
</clipPath>
<clipPath id="clip130">
  <path d="M 692.1875 361.792969 L 1690.0625 236.199219 L 1756.933594 767.503906 L 759.058594 893.101562 Z M 692.1875 361.792969 "/>
</clipPath>
<clipPath id="clip131">
  <path d="M 1353 443 L 1440 443 L 1440 623 L 1353 623 Z M 1353 443 "/>
</clipPath>
<clipPath id="clip132">
  <path d="M 692.1875 361.792969 L 1690.0625 236.199219 L 1756.933594 767.503906 L 759.058594 893.101562 Z M 692.1875 361.792969 "/>
</clipPath>
<clipPath id="clip133">
  <path d="M 692.1875 361.792969 L 1690.0625 236.199219 L 1756.933594 767.503906 L 759.058594 893.101562 Z M 692.1875 361.792969 "/>
</clipPath>
<clipPath id="clip134">
  <path d="M 1310 464 L 1440 464 L 1440 788 L 1310 788 Z M 1310 464 "/>
</clipPath>
<clipPath id="clip135">
  <path d="M 692.1875 361.792969 L 1690.0625 236.199219 L 1756.933594 767.503906 L 759.058594 893.101562 Z M 692.1875 361.792969 "/>
</clipPath>
<clipPath id="clip136">
  <path d="M 692.1875 361.792969 L 1690.0625 236.199219 L 1756.933594 767.503906 L 759.058594 893.101562 Z M 692.1875 361.792969 "/>
</clipPath>
<clipPath id="clip137">
  <path d="M 1093 556 L 1440 556 L 1440 810 L 1093 810 Z M 1093 556 "/>
</clipPath>
<clipPath id="clip138">
  <path d="M 692.1875 361.792969 L 1690.0625 236.199219 L 1756.933594 767.503906 L 759.058594 893.101562 Z M 692.1875 361.792969 "/>
</clipPath>
<clipPath id="clip139">
  <path d="M 692.1875 361.792969 L 1690.0625 236.199219 L 1756.933594 767.503906 L 759.058594 893.101562 Z M 692.1875 361.792969 "/>
</clipPath>
<clipPath id="clip140">
  <path d="M 0 395 L 318 395 L 318 810 L 0 810 Z M 0 395 "/>
</clipPath>
<clipPath id="clip141">
  <path d="M -263.410156 261.140625 L 448.765625 476.402344 L 317.703125 910.027344 L -394.476562 694.765625 Z M -263.410156 261.140625 "/>
</clipPath>
<clipPath id="clip142">
  <path d="M -263.410156 261.140625 L 448.765625 476.402344 L 317.703125 910.027344 L -394.476562 694.765625 Z M -263.410156 261.140625 "/>
</clipPath>
<clipPath id="clip143">
  <path d="M 73 396 L 163 396 L 163 616 L 73 616 Z M 73 396 "/>
</clipPath>
<clipPath id="clip144">
  <path d="M -263.410156 261.140625 L 448.765625 476.402344 L 317.703125 910.027344 L -394.476562 694.765625 Z M -263.410156 261.140625 "/>
</clipPath>
<clipPath id="clip145">
  <path d="M -263.410156 261.140625 L 448.765625 476.402344 L 317.703125 910.027344 L -394.476562 694.765625 Z M -263.410156 261.140625 "/>
</clipPath>
<clipPath id="clip146">
  <path d="M 59 395 L 149 395 L 149 509 L 59 509 Z M 59 395 "/>
</clipPath>
<clipPath id="clip147">
  <path d="M -263.410156 261.140625 L 448.765625 476.402344 L 317.703125 910.027344 L -394.476562 694.765625 Z M -263.410156 261.140625 "/>
</clipPath>
<clipPath id="clip148">
  <path d="M -263.410156 261.140625 L 448.765625 476.402344 L 317.703125 910.027344 L -394.476562 694.765625 Z M -263.410156 261.140625 "/>
</clipPath>
<clipPath id="clip149">
  <path d="M 92 532 L 232 532 L 232 804 L 92 804 Z M 92 532 "/>
</clipPath>
<clipPath id="clip150">
  <path d="M -263.410156 261.140625 L 448.765625 476.402344 L 317.703125 910.027344 L -394.476562 694.765625 Z M -263.410156 261.140625 "/>
</clipPath>
<clipPath id="clip151">
  <path d="M -263.410156 261.140625 L 448.765625 476.402344 L 317.703125 910.027344 L -394.476562 694.765625 Z M -263.410156 261.140625 "/>
</clipPath>
<clipPath id="clip152">
  <path d="M 0 473 L 74 473 L 74 776 L 0 776 Z M 0 473 "/>
</clipPath>
<clipPath id="clip153">
  <path d="M -263.410156 261.140625 L 448.765625 476.402344 L 317.703125 910.027344 L -394.476562 694.765625 Z M -263.410156 261.140625 "/>
</clipPath>
<clipPath id="clip154">
  <path d="M -263.410156 261.140625 L 448.765625 476.402344 L 317.703125 910.027344 L -394.476562 694.765625 Z M -263.410156 261.140625 "/>
</clipPath>
<clipPath id="clip155">
  <path d="M 100 522 L 213 522 L 213 620 L 100 620 Z M 100 522 "/>
</clipPath>
<clipPath id="clip156">
  <path d="M -263.410156 261.140625 L 448.765625 476.402344 L 317.703125 910.027344 L -394.476562 694.765625 Z M -263.410156 261.140625 "/>
</clipPath>
<clipPath id="clip157">
  <path d="M -263.410156 261.140625 L 448.765625 476.402344 L 317.703125 910.027344 L -394.476562 694.765625 Z M -263.410156 261.140625 "/>
</clipPath>
<clipPath id="clip158">
  <path d="M 0 464 L 75 464 L 75 616 L 0 616 Z M 0 464 "/>
</clipPath>
<clipPath id="clip159">
  <path d="M -263.410156 261.140625 L 448.765625 476.402344 L 317.703125 910.027344 L -394.476562 694.765625 Z M -263.410156 261.140625 "/>
</clipPath>
<clipPath id="clip160">
  <path d="M -263.410156 261.140625 L 448.765625 476.402344 L 317.703125 910.027344 L -394.476562 694.765625 Z M -263.410156 261.140625 "/>
</clipPath>
<clipPath id="clip161">
  <path d="M 193 740 L 318 740 L 318 810 L 193 810 Z M 193 740 "/>
</clipPath>
<clipPath id="clip162">
  <path d="M -263.410156 261.140625 L 448.765625 476.402344 L 317.703125 910.027344 L -394.476562 694.765625 Z M -263.410156 261.140625 "/>
</clipPath>
<clipPath id="clip163">
  <path d="M -263.410156 261.140625 L 448.765625 476.402344 L 317.703125 910.027344 L -394.476562 694.765625 Z M -263.410156 261.140625 "/>
</clipPath>
<clipPath id="clip164">
  <path d="M 139 720 L 308 720 L 308 810 L 139 810 Z M 139 720 "/>
</clipPath>
<clipPath id="clip165">
  <path d="M -263.410156 261.140625 L 448.765625 476.402344 L 317.703125 910.027344 L -394.476562 694.765625 Z M -263.410156 261.140625 "/>
</clipPath>
<clipPath id="clip166">
  <path d="M -263.410156 261.140625 L 448.765625 476.402344 L 317.703125 910.027344 L -394.476562 694.765625 Z M -263.410156 261.140625 "/>
</clipPath>
</defs>
<g id="surface1">
<g clip-path="url(#clip1)" clip-rule="nonzero">
<g clip-path="url(#clip2)" clip-rule="nonzero">
<g clip-path="url(#clip3)" clip-rule="nonzero">
<g clip-path="url(#clip4)" clip-rule="nonzero">
<g clip-path="url(#clip5)" clip-rule="nonzero">
<path style=" stroke:none;fill-rule:nonzero;fill:rgb(23.919678%,13.328552%,45.878601%);fill-opacity:1;" d="M 768.988281 718.601562 L 719.179688 674.585938 L 699.898438 680.378906 L 684.277344 691.078125 L 655.996094 668.75 L 640 661.222656 L 627.734375 644.921875 L 611.417969 658.582031 L 597.433594 678.507812 L 582.417969 660.445312 L 564.78125 654.273438 L 545.34375 667.644531 L 530.316406 649.5625 L 512.011719 634.234375 L 492.773438 596.070312 L 477.277344 566.699219 L 452.296875 524.960938 L 426.996094 486.886719 L 394.433594 494.480469 L 365.042969 516.898438 L 350.101562 530.71875 L 327.671875 553.941406 L 302.402344 570.898438 L 289.894531 607.84375 L 274.117188 647.144531 L 243.335938 651.867188 L 217.105469 705.867188 L 194.03125 725.710938 L 191.214844 756.21875 L 164.722656 796.703125 L 161.988281 826.308594 L 123.5 832.230469 L 115.648438 851.617188 L 114.710938 861.753906 L 660.824219 912.191406 L 768.988281 718.601562 "/>
</g>
</g>
</g>
</g>
</g>
<g clip-path="url(#clip6)" clip-rule="nonzero">
<g clip-path="url(#clip7)" clip-rule="nonzero">
<g clip-path="url(#clip8)" clip-rule="nonzero">
<path style=" stroke:none;fill-rule:nonzero;fill:rgb(16.079712%,10.5896%,29.40979%);fill-opacity:1;" d="M 568.679688 882.632812 L 635.511719 824.179688 L 706.714844 718.460938 L 671.1875 744.269531 L 657.773438 757.898438 L 627.339844 755.089844 L 614.285156 782.640625 L 590.636719 811.144531 L 574.269531 822.09375 L 576.355469 851.839844 L 568.679688 882.632812 "/>
</g>
</g>
</g>
<g clip-path="url(#clip9)" clip-rule="nonzero">
<g clip-path="url(#clip10)" clip-rule="nonzero">
<g clip-path="url(#clip11)" clip-rule="nonzero">
<path style=" stroke:none;fill-rule:nonzero;fill:rgb(69.799805%,64.309692%,91.758728%);fill-opacity:1;" d="M 667.519531 705.140625 L 663.910156 691.449219 L 639.355469 677.511719 L 630.488281 659.714844 L 633.273438 652.28125 L 640 661.222656 L 655.996094 668.75 L 684.277344 691.078125 L 699.898438 680.378906 L 719.179688 674.585938 L 732.140625 686.054688 L 731.527344 692.710938 L 713.40625 698.890625 L 697.597656 694.558594 L 685.523438 702.761719 L 670.273438 719.140625 L 667.519531 705.140625 "/>
</g>
</g>
</g>
<g clip-path="url(#clip12)" clip-rule="nonzero">
<g clip-path="url(#clip13)" clip-rule="nonzero">
<g clip-path="url(#clip14)" clip-rule="nonzero">
<g clip-path="url(#clip15)" clip-rule="nonzero">
<g clip-path="url(#clip16)" clip-rule="nonzero">
<path style=" stroke:none;fill-rule:nonzero;fill:rgb(38.038635%,26.669312%,76.469421%);fill-opacity:1;" d="M 983.988281 942.039062 L 940.820312 779.308594 L 918.96875 766.390625 L 895.070312 736.292969 L 879.632812 745.789062 L 857.921875 718.328125 L 824.230469 663.109375 L 790.632812 606.691406 L 771.183594 593.996094 L 749.164062 635.574219 L 724.292969 668.417969 L 711.578125 701.179688 L 693.078125 717.636719 L 679.8125 743.089844 L 665.6875 764.796875 L 623.894531 783.972656 L 572.503906 867.671875 L 547.539062 901.730469 L 983.988281 942.039062 "/>
</g>
</g>
</g>
</g>
</g>
<g clip-path="url(#clip17)" clip-rule="nonzero">
<g clip-path="url(#clip18)" clip-rule="nonzero">
<g clip-path="url(#clip19)" clip-rule="nonzero">
<path style=" stroke:none;fill-rule:nonzero;fill:rgb(23.919678%,13.328552%,45.878601%);fill-opacity:1;" d="M 981.289062 931.839844 L 948.480469 875.746094 L 938.699219 837.28125 L 928.75 826.660156 L 921.957031 834.519531 L 911.722656 814.1875 L 907.8125 790.800781 L 893.945312 783.457031 L 892.171875 802.679688 L 882.257812 789.652344 L 866.367188 766.980469 L 856.679688 780.015625 L 847.648438 746.46875 L 821.5625 713.773438 L 807.730469 679.757812 L 790.839844 650.332031 L 789.398438 665.953125 L 772.484375 628.042969 L 774.039062 611.226562 L 767.15625 601.605469 L 771.183594 593.996094 L 790.632812 606.691406 L 824.230469 663.109375 L 857.921875 718.328125 L 879.632812 745.789062 L 895.070312 736.292969 L 918.96875 766.390625 L 940.820312 779.308594 L 981.289062 931.839844 "/>
</g>
</g>
</g>
<g clip-path="url(#clip20)" clip-rule="nonzero">
<g clip-path="url(#clip21)" clip-rule="nonzero">
<g clip-path="url(#clip22)" clip-rule="nonzero">
<g clip-path="url(#clip23)" clip-rule="nonzero">
<g clip-path="url(#clip24)" clip-rule="nonzero">
<path style=" stroke:none;fill-rule:nonzero;fill:rgb(23.919678%,13.328552%,45.878601%);fill-opacity:1;" d="M 842.453125 822.324219 L 850.1875 850.316406 L 865.648438 859.613281 L 866.757812 847.589844 L 896.433594 881.242188 L 904.0625 903.753906 L 916.179688 910.328125 L 926.5 916.742188 L 932.417969 911.828125 L 980.375 941.707031 L 941.617188 938.125 L 936.394531 927.691406 L 927.464844 923.894531 L 898.574219 912.753906 L 895.402344 894.664062 L 890.644531 880.507812 L 877.386719 870.792969 L 877.054688 874.402344 L 864.722656 869.625 L 869.949219 876.972656 L 870.515625 888.324219 L 883.109375 896.359375 L 887.027344 910.867188 L 893.21875 918.320312 L 894.4375 926.894531 L 896.472656 933.957031 L 872.632812 931.753906 L 873.460938 926.382812 L 871.164062 909.796875 L 867.875 894.953125 L 860.40625 883.964844 L 856.226562 870.253906 L 841.695312 863.460938 L 836.207031 844.15625 L 835.507812 825.332031 L 816.828125 778.167969 L 842.453125 822.324219 "/>
</g>
</g>
</g>
</g>
</g>
<g clip-path="url(#clip25)" clip-rule="nonzero">
<g clip-path="url(#clip26)" clip-rule="nonzero">
<g clip-path="url(#clip27)" clip-rule="nonzero">
<path style=" stroke:none;fill-rule:nonzero;fill:rgb(23.919678%,13.328552%,45.878601%);fill-opacity:1;" d="M 750.695312 632.679688 L 740.046875 690.484375 L 743.90625 706.175781 L 751.863281 728.734375 L 761.832031 743.390625 L 765.382812 757.65625 L 751.378906 738.398438 L 737.386719 719.308594 L 732.890625 697.890625 L 728.113281 679.671875 L 736.441406 652.390625 L 750.695312 632.679688 "/>
</g>
</g>
</g>
<g clip-path="url(#clip28)" clip-rule="nonzero">
<g clip-path="url(#clip29)" clip-rule="nonzero">
<g clip-path="url(#clip30)" clip-rule="nonzero">
<g clip-path="url(#clip31)" clip-rule="nonzero">
<g clip-path="url(#clip32)" clip-rule="nonzero">
<path style=" stroke:none;fill-rule:nonzero;fill:rgb(23.919678%,13.328552%,45.878601%);fill-opacity:1;" d="M 602.6875 891.0625 L 618.082031 881.984375 L 626.621094 868.242188 L 636.40625 858.632812 L 647.015625 848.707031 L 660.046875 830.121094 L 660.8125 813.230469 L 684.132812 805.691406 L 684.808594 789.597656 L 705.746094 781.832031 L 686.445312 824.480469 L 671.925781 832.832031 L 663.886719 849.878906 L 650.832031 859.964844 L 638.78125 876.632812 L 637.007812 895.855469 L 622.082031 908.613281 L 593.921875 906.011719 L 602.6875 891.0625 "/>
</g>
</g>
</g>
</g>
</g>
<g clip-path="url(#clip33)" clip-rule="nonzero">
<g clip-path="url(#clip34)" clip-rule="nonzero">
<g clip-path="url(#clip35)" clip-rule="nonzero">
<path style=" stroke:none;fill-rule:nonzero;fill:rgb(69.799805%,64.309692%,91.758728%);fill-opacity:1;" d="M 547.953125 699.917969 L 524.734375 712.964844 L 489.652344 727.214844 L 455.613281 715.058594 L 414.65625 725.261719 L 430.277344 700.597656 L 418.101562 687.925781 L 411.722656 678.300781 L 392.855469 685.59375 L 384.285156 673.339844 L 392.8125 672.90625 L 407.09375 662.746094 L 428.144531 658.003906 L 442.667969 671.457031 L 467.8125 661.667969 L 481.636719 669.628906 L 491.359375 670.527344 L 502.59375 652.765625 L 494.300781 638.65625 L 504.8125 619.945312 L 512.011719 634.234375 L 530.316406 649.5625 L 545.34375 667.644531 L 564.78125 654.273438 L 582.417969 660.445312 L 597.433594 678.507812 L 586.0625 694.402344 L 547.953125 699.917969 "/>
</g>
</g>
</g>
<g clip-path="url(#clip36)" clip-rule="nonzero">
<g clip-path="url(#clip37)" clip-rule="nonzero">
<g clip-path="url(#clip38)" clip-rule="nonzero">
<path style=" stroke:none;fill-rule:nonzero;fill:rgb(69.799805%,64.309692%,91.758728%);fill-opacity:1;" d="M 536.398438 715.65625 L 513.300781 729.398438 L 504.582031 745.039062 L 520.0625 734.996094 L 536.398438 715.65625 "/>
</g>
</g>
</g>
<g clip-path="url(#clip39)" clip-rule="nonzero">
<g clip-path="url(#clip40)" clip-rule="nonzero">
<g clip-path="url(#clip41)" clip-rule="nonzero">
<path style=" stroke:none;fill-rule:nonzero;fill:rgb(69.799805%,64.309692%,91.758728%);fill-opacity:1;" d="M 553.75 711.617188 L 541.492188 721.792969 L 540.101562 736.847656 L 549.378906 732.730469 L 553.75 711.617188 "/>
</g>
</g>
</g>
<g clip-path="url(#clip42)" clip-rule="nonzero">
<g clip-path="url(#clip43)" clip-rule="nonzero">
<g clip-path="url(#clip44)" clip-rule="nonzero">
<path style=" stroke:none;fill-rule:nonzero;fill:rgb(69.799805%,64.309692%,91.758728%);fill-opacity:1;" d="M 534.488281 736.328125 L 533.4375 747.703125 L 520.8125 755.425781 L 507.78125 754.222656 L 513.816406 750.183594 L 534.488281 736.328125 "/>
</g>
</g>
</g>
<g clip-path="url(#clip45)" clip-rule="nonzero">
<g clip-path="url(#clip46)" clip-rule="nonzero">
<g clip-path="url(#clip47)" clip-rule="nonzero">
<path style=" stroke:none;fill-rule:nonzero;fill:rgb(69.799805%,64.309692%,91.758728%);fill-opacity:1;" d="M 503.769531 753.851562 L 496.980469 757.253906 L 483.464844 756.003906 Z M 503.769531 753.851562 "/>
</g>
</g>
</g>
<g clip-path="url(#clip48)" clip-rule="nonzero">
<g clip-path="url(#clip49)" clip-rule="nonzero">
<g clip-path="url(#clip50)" clip-rule="nonzero">
<path style=" stroke:none;fill-rule:nonzero;fill:rgb(69.799805%,64.309692%,91.758728%);fill-opacity:1;" d="M 502.050781 728.648438 L 497.484375 743.097656 L 484.644531 743.195312 L 468.121094 745.960938 L 502.050781 728.648438 "/>
</g>
</g>
</g>
<g clip-path="url(#clip51)" clip-rule="nonzero">
<g clip-path="url(#clip52)" clip-rule="nonzero">
<g clip-path="url(#clip53)" clip-rule="nonzero">
<path style=" stroke:none;fill-rule:nonzero;fill:rgb(69.799805%,64.309692%,91.758728%);fill-opacity:1;" d="M 482.496094 590.304688 L 463.527344 555.4375 L 457.472656 554.878906 L 443.726562 537.445312 L 420.042969 531.230469 L 411.914062 514.316406 L 413.46875 497.5 L 398.785156 516.34375 L 403.785156 532.148438 L 405.5 539.976562 L 427.136719 541.972656 L 439.714844 563.382812 L 455.746094 564.863281 L 461.675781 575.457031 L 465.363281 591.960938 L 486.0625 604.210938 L 482.496094 590.304688 "/>
</g>
</g>
</g>
<g clip-path="url(#clip54)" clip-rule="nonzero">
<g clip-path="url(#clip55)" clip-rule="nonzero">
<g clip-path="url(#clip56)" clip-rule="nonzero">
<path style=" stroke:none;fill-rule:nonzero;fill:rgb(69.799805%,64.309692%,91.758728%);fill-opacity:1;" d="M 369.175781 556.867188 L 357.816406 592.367188 L 322.625 623.203125 L 314.949219 645.113281 L 298.449219 666.214844 L 283.046875 675.449219 L 263.882812 681.605469 L 286.398438 656.582031 L 303.160156 632.722656 L 304.933594 613.492188 L 322.886719 594.148438 L 334.558594 590.21875 L 346.234375 568.839844 L 369.175781 556.867188 "/>
</g>
</g>
</g>
<g clip-path="url(#clip57)" clip-rule="nonzero">
<g clip-path="url(#clip58)" clip-rule="nonzero">
<g clip-path="url(#clip59)" clip-rule="nonzero">
<path style=" stroke:none;fill-rule:nonzero;fill:rgb(69.799805%,64.309692%,91.758728%);fill-opacity:1;" d="M 456.347656 584.667969 L 459.753906 596.292969 L 472.0625 606.945312 L 458.878906 605.726562 L 451.375 594.617188 L 456.347656 584.667969 "/>
</g>
</g>
</g>
<g clip-path="url(#clip60)" clip-rule="nonzero">
<g clip-path="url(#clip61)" clip-rule="nonzero">
<g clip-path="url(#clip62)" clip-rule="nonzero">
<path style=" stroke:none;fill-rule:nonzero;fill:rgb(69.799805%,64.309692%,91.758728%);fill-opacity:1;" d="M 445.707031 577.222656 L 441.492188 570.363281 L 437.6875 576.480469 L 449.136719 584 L 445.707031 577.222656 "/>
</g>
</g>
</g>
<g clip-path="url(#clip63)" clip-rule="nonzero">
<g clip-path="url(#clip64)" clip-rule="nonzero">
<g clip-path="url(#clip65)" clip-rule="nonzero">
<path style=" stroke:none;fill-rule:nonzero;fill:rgb(69.799805%,64.309692%,91.758728%);fill-opacity:1;" d="M 375.664062 582.867188 L 374.640625 593.921875 L 360.652344 596.65625 L 373.8125 602.894531 L 391.476562 595.476562 L 387.402344 578.300781 L 383.605469 584.410156 L 375.664062 582.867188 "/>
</g>
</g>
</g>
<g clip-path="url(#clip66)" clip-rule="nonzero">
<g clip-path="url(#clip67)" clip-rule="nonzero">
<g clip-path="url(#clip68)" clip-rule="nonzero">
<path style=" stroke:none;fill-rule:nonzero;fill:rgb(69.799805%,64.309692%,91.758728%);fill-opacity:1;" d="M 374.785156 557.386719 L 378.003906 522.503906 L 381.859375 533.363281 L 384.03125 544.777344 L 374.785156 557.386719 "/>
</g>
</g>
</g>
<g clip-path="url(#clip69)" clip-rule="nonzero">
<g clip-path="url(#clip70)" clip-rule="nonzero">
<g clip-path="url(#clip71)" clip-rule="nonzero">
<g clip-path="url(#clip72)" clip-rule="nonzero">
<g clip-path="url(#clip73)" clip-rule="nonzero">
<path style=" stroke:none;fill-rule:nonzero;fill:rgb(16.079712%,10.5896%,29.40979%);fill-opacity:1;" d="M 335.394531 882.136719 L 388.238281 887.015625 L 380.375 864.445312 L 376.710938 834.1875 L 394.242188 801.898438 L 402.460938 756.609375 L 405.4375 724.410156 L 392.132812 767.765625 L 374.003906 784.683594 L 356.011719 804.347656 L 339.847656 821.917969 L 338.515625 836.335938 L 342.066406 850.390625 L 340.585938 866.425781 L 335.394531 882.136719 "/>
</g>
</g>
</g>
</g>
</g>
<g clip-path="url(#clip74)" clip-rule="nonzero">
<g clip-path="url(#clip75)" clip-rule="nonzero">
<g clip-path="url(#clip76)" clip-rule="nonzero">
<path style=" stroke:none;fill-rule:nonzero;fill:rgb(16.079712%,10.5896%,29.40979%);fill-opacity:1;" d="M 189.207031 816.082031 L 216.929688 804.90625 L 226.96875 792.429688 L 231.234375 781.175781 L 244.160156 772.691406 L 256.410156 762.5 L 265.332031 735.855469 L 276.390625 712.492188 L 310.738281 681.890625 L 265.742188 705.199219 L 244.261719 745.226562 L 232.144531 762.683594 L 219.738281 774.472656 L 214.136719 791.242188 L 194.257812 805.234375 L 189.207031 816.082031 "/>
</g>
</g>
</g>
<g clip-path="url(#clip77)" clip-rule="nonzero">
<g clip-path="url(#clip78)" clip-rule="nonzero">
<g clip-path="url(#clip79)" clip-rule="nonzero">
<path style=" stroke:none;fill-rule:nonzero;fill:rgb(69.799805%,64.309692%,91.758728%);fill-opacity:1;" d="M 920.886719 690.589844 C 910.582031 681.5 900.269531 672.410156 889.960938 663.320312 C 888.75 662.25 887.390625 661.148438 885.875 660.753906 C 887.203125 664.261719 888.390625 667.734375 889.417969 671.171875 C 900.261719 677.910156 910.0625 684.714844 920.886719 690.589844 "/>
</g>
</g>
</g>
<g clip-path="url(#clip80)" clip-rule="nonzero">
<g clip-path="url(#clip81)" clip-rule="nonzero">
<g clip-path="url(#clip82)" clip-rule="nonzero">
<path style=" stroke:none;fill-rule:nonzero;fill:rgb(69.799805%,64.309692%,91.758728%);fill-opacity:1;" d="M 887.453125 748.785156 C 887.457031 748.667969 887.472656 748.558594 887.480469 748.441406 C 887.445312 748.394531 887.414062 748.34375 887.390625 748.285156 L 887.453125 748.785156 "/>
</g>
</g>
</g>
<g clip-path="url(#clip83)" clip-rule="nonzero">
<g clip-path="url(#clip84)" clip-rule="nonzero">
<g clip-path="url(#clip85)" clip-rule="nonzero">
<path style=" stroke:none;fill-rule:nonzero;fill:rgb(69.799805%,64.309692%,91.758728%);fill-opacity:1;" d="M 915.441406 706.710938 L 894.8125 691.578125 C 895.46875 694.152344 896.179688 696.789062 896.90625 699.445312 L 921.746094 723.1875 L 915.441406 706.710938 "/>
</g>
</g>
</g>
<g clip-path="url(#clip86)" clip-rule="nonzero">
<g clip-path="url(#clip87)" clip-rule="nonzero">
<g clip-path="url(#clip88)" clip-rule="nonzero">
<path style=" stroke:none;fill-rule:nonzero;fill:rgb(23.919678%,13.328552%,45.878601%);fill-opacity:1;" d="M 1023.472656 786.382812 C 1012.285156 771.203125 998.023438 758.609375 983.882812 746.132812 C 969.3125 733.285156 954.75 720.445312 940.183594 707.597656 C 933.746094 701.929688 927.316406 696.257812 920.886719 690.589844 C 910.0625 684.714844 900.261719 677.910156 889.417969 671.171875 C 891.03125 676.5625 892.382812 681.964844 893.769531 687.445312 C 894.113281 688.824219 894.453125 690.179688 894.8125 691.578125 L 915.441406 706.710938 L 921.558594 722.675781 L 921.746094 723.1875 L 896.90625 699.445312 C 897.121094 700.214844 897.300781 700.957031 897.523438 701.746094 C 893.441406 717.621094 888.191406 732.242188 887.480469 748.441406 C 891.585938 755.894531 896.152344 762.90625 900.324219 769.855469 C 899.683594 782.671875 899.148438 795.472656 898.535156 808.285156 C 897.460938 830.871094 896.167969 853.476562 893.648438 876.234375 L 1026.90625 859.460938 C 1032.710938 844.136719 1034.761719 826.144531 1045.625 813.84375 C 1036.375 806.503906 1030.476562 795.886719 1023.472656 786.382812 "/>
</g>
</g>
</g>
<g clip-path="url(#clip89)" clip-rule="nonzero">
<g clip-path="url(#clip90)" clip-rule="nonzero">
<g clip-path="url(#clip91)" clip-rule="nonzero">
<path style=" stroke:none;fill-rule:nonzero;fill:rgb(16.079712%,10.5896%,29.40979%);fill-opacity:1;" d="M 886.90625 768.742188 L 878.089844 764.34375 L 852.09375 817.90625 L 852.820312 808.910156 L 854.167969 792.355469 L 871.097656 744.914062 L 881.058594 716.984375 L 877.257812 697.160156 L 870.792969 699.417969 L 865.09375 734.726562 L 852.195312 741.949219 L 851.578125 743 L 833.601562 773.71875 C 820.707031 780.878906 809.777344 788.828125 800.34375 798.085938 C 793.511719 808.722656 787.066406 822 781.199219 835.828125 C 772.730469 855.796875 765.464844 876.9375 760.023438 893.050781 L 893.648438 876.234375 C 896.167969 853.476562 897.460938 830.871094 898.535156 808.285156 C 898.820312 802.210938 899.097656 796.136719 899.375 790.054688 L 886.90625 768.742188 "/>
</g>
</g>
</g>
<g clip-path="url(#clip92)" clip-rule="nonzero">
<g clip-path="url(#clip93)" clip-rule="nonzero">
<g clip-path="url(#clip94)" clip-rule="nonzero">
<path style=" stroke:none;fill-rule:nonzero;fill:rgb(69.799805%,64.309692%,91.758728%);fill-opacity:1;" d="M 887.453125 748.785156 L 887.390625 748.285156 C 887.414062 748.34375 887.445312 748.394531 887.480469 748.441406 C 888.191406 732.242188 893.441406 717.621094 897.523438 701.746094 C 894.476562 691.0625 892.398438 681.167969 889.417969 671.171875 C 888.390625 667.734375 887.203125 664.261719 885.875 660.753906 C 885.429688 660.640625 884.96875 660.566406 884.496094 660.59375 C 881.835938 660.75 880.101562 663.363281 878.804688 665.6875 C 867.15625 686.671875 856.597656 708.257812 847.1875 730.332031 C 843.085938 739.96875 839.160156 749.773438 833.3125 758.464844 C 826.261719 768.929688 816.683594 777.386719 808.46875 786.960938 C 805.714844 790.171875 803 793.953125 800.34375 798.085938 C 809.777344 788.828125 820.707031 780.878906 833.601562 773.71875 L 851.578125 743 L 852.195312 741.949219 L 865.09375 734.726562 L 870.792969 699.417969 L 877.257812 697.160156 L 881.058594 716.984375 L 854.167969 792.355469 L 852.09375 817.90625 L 878.089844 764.34375 L 886.90625 768.742188 L 899.375 790.054688 C 899.679688 783.328125 899.992188 776.59375 900.324219 769.855469 C 896.152344 762.90625 891.585938 755.894531 887.480469 748.441406 C 887.472656 748.558594 887.457031 748.667969 887.453125 748.785156 "/>
</g>
</g>
</g>
<g clip-path="url(#clip95)" clip-rule="nonzero">
<g clip-path="url(#clip96)" clip-rule="nonzero">
<g clip-path="url(#clip97)" clip-rule="nonzero">
<path style=" stroke:none;fill-rule:nonzero;fill:rgb(38.038635%,26.669312%,76.469421%);fill-opacity:1;" d="M 973.058594 665.433594 L 972.550781 666.160156 L 973.058594 665.425781 Z M 973.058594 665.433594 "/>
</g>
</g>
</g>
<g clip-path="url(#clip98)" clip-rule="nonzero">
<g clip-path="url(#clip99)" clip-rule="nonzero">
<g clip-path="url(#clip100)" clip-rule="nonzero">
<path style=" stroke:none;fill-rule:nonzero;fill:rgb(69.799805%,64.309692%,91.758728%);fill-opacity:1;" d="M 1203.605469 354.429688 L 1249.613281 416.527344 L 1300.832031 455.351562 L 1262.808594 405.800781 L 1303.394531 424.078125 C 1256.421875 390.402344 1215.5625 348.199219 1183.628906 300.027344 C 1182.351562 301.785156 1181.082031 303.550781 1179.804688 305.3125 L 1173.296875 356.800781 L 1141.648438 407.527344 L 1178.417969 474.265625 L 1155.09375 589.953125 L 1108.460938 628.792969 L 1100.78125 681.121094 L 1159.75 607.230469 L 1183.4375 639.820312 L 1170.414062 593.113281 L 1196.113281 476.425781 L 1192.660156 492.121094 L 1215.796875 577.703125 L 1242.324219 609.175781 L 1212.410156 490.714844 L 1231.820312 487.167969 L 1272.148438 515.015625 L 1243.457031 469.972656 L 1184.617188 444.417969 L 1171.335938 407.4375 L 1199.664062 397.074219 L 1203.605469 354.429688 "/>
</g>
</g>
</g>
<g clip-path="url(#clip101)" clip-rule="nonzero">
<g clip-path="url(#clip102)" clip-rule="nonzero">
<g clip-path="url(#clip103)" clip-rule="nonzero">
<path style=" stroke:none;fill-rule:nonzero;fill:rgb(69.799805%,64.309692%,91.758728%);fill-opacity:1;" d="M 1084.191406 480.882812 C 1083.476562 483.628906 1082.796875 486.386719 1082.109375 489.144531 L 1097.902344 461.464844 L 1124.21875 400.671875 L 1177.523438 323.398438 L 1179.804688 305.3125 C 1140.488281 359.753906 1101.117188 416.011719 1084.191406 480.882812 "/>
</g>
</g>
</g>
<g clip-path="url(#clip104)" clip-rule="nonzero">
<g clip-path="url(#clip105)" clip-rule="nonzero">
<g clip-path="url(#clip106)" clip-rule="nonzero">
<path style=" stroke:none;fill-rule:nonzero;fill:rgb(69.799805%,64.309692%,91.758728%);fill-opacity:1;" d="M 999.367188 570.199219 L 998.066406 536.3125 C 982.699219 577.632812 969.828125 635.40625 961.515625 681.828125 L 970.957031 668.417969 L 995.144531 581.640625 L 1009.753906 617.398438 L 1034.792969 655.59375 L 999.367188 570.199219 "/>
</g>
</g>
</g>
<g clip-path="url(#clip107)" clip-rule="nonzero">
<g clip-path="url(#clip108)" clip-rule="nonzero">
<g clip-path="url(#clip109)" clip-rule="nonzero">
<path style=" stroke:none;fill-rule:nonzero;fill:rgb(69.799805%,64.309692%,91.758728%);fill-opacity:1;" d="M 1018.105469 594.328125 L 1017.75 593.105469 L 1017.894531 592.886719 L 1011.375 548.722656 L 1033.265625 545.488281 C 1014.773438 540.117188 998.617188 534.785156 998.617188 534.785156 C 998.433594 535.285156 998.25 535.8125 998.066406 536.3125 L 999.367188 570.199219 L 1034.792969 655.59375 L 1036.570312 658.3125 L 1018.105469 594.328125 "/>
</g>
</g>
</g>
<g clip-path="url(#clip110)" clip-rule="nonzero">
<g clip-path="url(#clip111)" clip-rule="nonzero">
<g clip-path="url(#clip112)" clip-rule="nonzero">
<path style=" stroke:none;fill-rule:nonzero;fill:rgb(69.799805%,64.309692%,91.758728%);fill-opacity:1;" d="M 1141.992188 408.164062 L 1101.800781 484.335938 L 1093.867188 521.074219 L 1137.984375 452.773438 L 1178.3125 474.789062 L 1178.417969 474.265625 L 1141.992188 408.164062 "/>
</g>
</g>
</g>
<g clip-path="url(#clip113)" clip-rule="nonzero">
<g clip-path="url(#clip114)" clip-rule="nonzero">
<g clip-path="url(#clip115)" clip-rule="nonzero">
<path style=" stroke:none;fill-rule:nonzero;fill:rgb(16.079712%,10.5896%,29.40979%);fill-opacity:1;" d="M 1177.523438 323.398438 L 1124.21875 400.671875 L 1097.902344 461.464844 L 1082.109375 489.144531 C 1079.703125 498.855469 1077.191406 508.554688 1072.539062 517.371094 C 1066.402344 528.992188 1057.082031 538.152344 1047.074219 546.816406 L 1045.777344 548.433594 L 1098.09375 562.027344 L 1070.425781 576.128906 L 1108.675781 628.609375 L 1152.480469 592.128906 L 1155.09375 589.953125 L 1178.3125 474.789062 L 1137.984375 452.773438 L 1093.867188 521.074219 L 1101.800781 484.335938 L 1141.992188 408.164062 L 1141.648438 407.527344 L 1173.296875 356.800781 L 1177.523438 323.398438 "/>
</g>
</g>
</g>
<g clip-path="url(#clip116)" clip-rule="nonzero">
<g clip-path="url(#clip117)" clip-rule="nonzero">
<g clip-path="url(#clip118)" clip-rule="nonzero">
<path style=" stroke:none;fill-rule:nonzero;fill:rgb(23.919678%,13.328552%,45.878601%);fill-opacity:1;" d="M 1098.675781 695.449219 L 1098.972656 693.441406 L 1099.667969 688.675781 Z M 1303.394531 424.078125 L 1262.808594 405.800781 L 1300.832031 455.351562 L 1249.613281 416.527344 L 1203.605469 354.429688 L 1199.664062 397.074219 L 1171.335938 407.4375 L 1184.617188 444.417969 L 1243.457031 469.972656 L 1247.882812 476.914062 L 1270.5625 512.527344 L 1272.148438 515.015625 L 1231.820312 487.167969 L 1212.410156 490.714844 L 1240.410156 601.574219 L 1242.324219 609.175781 L 1238.367188 604.480469 L 1215.796875 577.703125 L 1205.722656 540.425781 L 1192.660156 492.121094 L 1170.414062 593.113281 L 1183.4375 639.820312 L 1159.75 607.230469 L 1100.78125 681.121094 L 1108.460938 628.792969 L 1108.675781 628.609375 L 1070.425781 576.128906 L 1098.09375 562.027344 L 1045.777344 548.433594 L 1047.074219 546.816406 C 1046.320312 547.46875 1045.578125 548.117188 1044.824219 548.761719 C 1040.953125 547.695312 1037.066406 546.59375 1033.265625 545.488281 L 1011.375 548.722656 L 1017.894531 592.886719 L 1017.75 593.105469 L 1035.511719 654.644531 L 1036.570312 658.3125 L 1029.160156 647.003906 L 1040.835938 750.941406 L 1040.949219 750.472656 L 1026.445312 814.234375 L 1015.890625 860.671875 L 1015.84375 860.855469 L 1167.960938 841.707031 L 1174.089844 740.433594 L 1174.148438 739.507812 L 1176.160156 706.207031 L 1215.082031 665.601562 L 1232.925781 646.964844 L 1248.996094 630.195312 L 1274.660156 572.886719 L 1285.871094 547.863281 L 1293.007812 531.917969 L 1293.664062 530.453125 L 1300.683594 514.78125 L 1319.960938 509.082031 L 1341.875 470.140625 L 1350.921875 454.066406 C 1334.5 445.03125 1318.625 435.003906 1303.394531 424.078125 "/>
</g>
</g>
</g>
<g clip-path="url(#clip119)" clip-rule="nonzero">
<g clip-path="url(#clip120)" clip-rule="nonzero">
<g clip-path="url(#clip121)" clip-rule="nonzero">
<path style=" stroke:none;fill-rule:nonzero;fill:rgb(16.079712%,10.5896%,29.40979%);fill-opacity:1;" d="M 1008.371094 615.285156 L 1009.753906 617.398438 L 995.144531 581.640625 L 970.957031 668.417969 L 972.550781 666.160156 L 973.058594 665.433594 L 973.058594 665.425781 L 972.550781 666.160156 L 961.515625 681.828125 C 957.128906 693.820312 952.6875 705.769531 947.753906 717.363281 C 933.085938 751.800781 913.433594 784.097656 889.601562 812.953125 L 868.121094 849.785156 L 848.296875 881.941406 L 1015.84375 860.855469 L 1040.835938 750.941406 L 1029.160156 647.003906 L 1008.371094 615.285156 "/>
</g>
</g>
</g>
<g clip-path="url(#clip122)" clip-rule="nonzero">
<g clip-path="url(#clip123)" clip-rule="nonzero">
<g clip-path="url(#clip124)" clip-rule="nonzero">
<path style=" stroke:none;fill-rule:nonzero;fill:rgb(69.799805%,64.309692%,91.758728%);fill-opacity:1;" d="M 1318.179688 592.386719 L 1345.84375 615.742188 L 1342.253906 607.84375 L 1322.300781 592.363281 L 1310.4375 537.867188 L 1326.300781 515.441406 L 1326.777344 496.964844 L 1319.960938 509.082031 L 1300.914062 514.714844 L 1305.023438 558.277344 L 1318.179688 592.386719 "/>
</g>
</g>
</g>
<g clip-path="url(#clip125)" clip-rule="nonzero">
<g clip-path="url(#clip126)" clip-rule="nonzero">
<g clip-path="url(#clip127)" clip-rule="nonzero">
<path style=" stroke:none;fill-rule:nonzero;fill:rgb(69.799805%,64.309692%,91.758728%);fill-opacity:1;" d="M 1318.179688 592.386719 L 1305.023438 558.277344 L 1300.914062 514.714844 L 1300.683594 514.78125 L 1247.066406 634.515625 L 1259.464844 626.425781 L 1297.589844 556.046875 L 1313.617188 595.078125 L 1347.550781 619.496094 L 1345.84375 615.742188 L 1318.179688 592.386719 "/>
</g>
</g>
</g>
<g clip-path="url(#clip128)" clip-rule="nonzero">
<g clip-path="url(#clip129)" clip-rule="nonzero">
<g clip-path="url(#clip130)" clip-rule="nonzero">
<path style=" stroke:none;fill-rule:nonzero;fill:rgb(69.799805%,64.309692%,91.758728%);fill-opacity:1;" d="M 1348.632812 470.75 L 1356.214844 483.613281 L 1353.828125 466.375 L 1359.90625 443.347656 C 1356.347656 448.953125 1351.394531 454.339844 1351.394531 454.339844 C 1351.238281 454.253906 1351.078125 454.15625 1350.921875 454.066406 L 1326.777344 496.964844 L 1326.300781 515.441406 L 1326.535156 515.113281 L 1369.535156 537.886719 L 1342.257812 507.535156 L 1348.632812 470.75 "/>
</g>
</g>
</g>
<g clip-path="url(#clip131)" clip-rule="nonzero">
<g clip-path="url(#clip132)" clip-rule="nonzero">
<g clip-path="url(#clip133)" clip-rule="nonzero">
<path style=" stroke:none;fill-rule:nonzero;fill:rgb(69.799805%,64.309692%,91.758728%);fill-opacity:1;" d="M 1487.742188 546.664062 C 1484.722656 541.769531 1482.003906 536.472656 1477.453125 532.953125 C 1471.625 528.453125 1463.871094 527.652344 1456.792969 525.601562 C 1415.539062 513.625 1399.496094 460.023438 1359.925781 443.3125 C 1359.917969 443.320312 1359.910156 443.328125 1359.90625 443.347656 L 1353.828125 466.375 L 1356.214844 483.613281 L 1357.019531 484.980469 L 1359.835938 464.320312 L 1387.890625 481.09375 L 1420.394531 528.011719 L 1411.914062 622.570312 L 1426.726562 594.789062 L 1438.832031 541.421875 L 1462.21875 538.777344 L 1491.273438 551.949219 C 1490.058594 550.21875 1488.859375 548.46875 1487.742188 546.664062 "/>
</g>
</g>
</g>
<g clip-path="url(#clip134)" clip-rule="nonzero">
<g clip-path="url(#clip135)" clip-rule="nonzero">
<g clip-path="url(#clip136)" clip-rule="nonzero">
<path style=" stroke:none;fill-rule:nonzero;fill:rgb(23.919678%,13.328552%,45.878601%);fill-opacity:1;" d="M 1686.015625 697.214844 C 1675.929688 691.285156 1665.839844 685.367188 1655.757812 679.4375 C 1650.320312 676.246094 1644.816406 673.023438 1638.757812 671.292969 C 1633.464844 669.78125 1627.875 669.441406 1622.660156 667.695312 C 1621.101562 667.171875 1619.621094 666.519531 1618.171875 665.796875 C 1612.351562 662.882812 1607.253906 658.523438 1602.304688 654.21875 C 1583.5 637.863281 1564.703125 621.511719 1545.910156 605.164062 C 1540.082031 600.089844 1534.253906 595.03125 1528.433594 589.957031 C 1515.035156 578.304688 1501.472656 566.414062 1491.273438 551.949219 L 1462.21875 538.777344 L 1438.832031 541.421875 L 1426.726562 594.789062 L 1413.125 620.300781 L 1411.914062 622.570312 L 1417.441406 561.003906 L 1418.082031 553.839844 L 1420.394531 528.011719 L 1406.71875 508.261719 L 1387.890625 481.09375 L 1385.398438 479.601562 L 1359.835938 464.320312 L 1357.019531 484.980469 L 1348.632812 470.75 L 1342.257812 507.535156 L 1369.535156 537.886719 L 1368.417969 537.300781 L 1326.535156 515.113281 L 1326.347656 515.382812 L 1310.4375 537.867188 L 1322.300781 592.363281 L 1342.253906 607.84375 L 1346.707031 617.640625 L 1347.550781 619.496094 L 1347.261719 619.285156 L 1384.515625 696.257812 L 1595.625 787.882812 L 1755.949219 767.703125 L 1686.015625 697.214844 "/>
</g>
</g>
</g>
<g clip-path="url(#clip137)" clip-rule="nonzero">
<g clip-path="url(#clip138)" clip-rule="nonzero">
<g clip-path="url(#clip139)" clip-rule="nonzero">
<path style=" stroke:none;fill-rule:nonzero;fill:rgb(16.079712%,10.5896%,29.40979%);fill-opacity:1;" d="M 1384.515625 696.257812 L 1347.261719 619.285156 L 1344.359375 617.195312 L 1313.617188 595.078125 L 1313.402344 594.546875 L 1297.589844 556.046875 L 1259.464844 626.425781 L 1247.066406 634.515625 L 1248.996094 630.195312 L 1176.160156 706.207031 L 1093.304688 851.105469 L 1595.625 787.882812 L 1384.515625 696.257812 "/>
</g>
</g>
</g>
<g clip-path="url(#clip140)" clip-rule="nonzero">
<g clip-path="url(#clip141)" clip-rule="nonzero">
<g clip-path="url(#clip142)" clip-rule="nonzero">
<path style=" stroke:none;fill-rule:nonzero;fill:rgb(16.079712%,10.5896%,29.40979%);fill-opacity:1;" d="M -394.34375 694.402344 L -197.507812 533.566406 L -167.320312 542.691406 L -151.96875 556.601562 L -89.566406 503.394531 L -62.324219 518.835938 L 3.484375 464.597656 L 24.230469 470.867188 L 115.460938 400.632812 C 115.460938 400.632812 129.847656 380.273438 139.761719 422.394531 C 149.679688 464.511719 160.972656 522.496094 160.972656 522.496094 L 175.097656 537.0625 L 212.019531 619.257812 L 231.996094 720.019531 L 271.175781 760.691406 L 311.054688 870.550781 L 317.765625 909.644531 L -394.34375 694.402344 "/>
</g>
</g>
</g>
<g clip-path="url(#clip143)" clip-rule="nonzero">
<g clip-path="url(#clip144)" clip-rule="nonzero">
<g clip-path="url(#clip145)" clip-rule="nonzero">
<path style=" stroke:none;fill-rule:nonzero;fill:rgb(23.919678%,13.328552%,45.878601%);fill-opacity:1;" d="M 126.945312 396.40625 L 124.484375 427.8125 L 120.167969 437.832031 L 114.289062 461.539062 L 97.4375 487.5 L 76.707031 527.140625 L 73.191406 615.386719 L 100.117188 586.46875 C 100.117188 586.46875 128.757812 560.113281 129.609375 559.859375 C 130.457031 559.601562 148.324219 546.46875 149.789062 545.882812 C 151.25 545.292969 162.308594 539.371094 162.308594 539.371094 L 160.972656 522.496094 C 160.972656 522.496094 142.390625 427.753906 140.777344 426.492188 C 139.160156 425.234375 138.464844 404.542969 126.945312 396.40625 "/>
</g>
</g>
</g>
<g clip-path="url(#clip146)" clip-rule="nonzero">
<g clip-path="url(#clip147)" clip-rule="nonzero">
<g clip-path="url(#clip148)" clip-rule="nonzero">
<path style=" stroke:none;fill-rule:nonzero;fill:rgb(69.799805%,64.309692%,91.758728%);fill-opacity:1;" d="M 59.574219 443.65625 L 97.132812 421.519531 L 113.859375 413.878906 L 111.578125 421.421875 C 111.578125 421.421875 96.730469 433.0625 96.667969 434.417969 C 96.601562 435.769531 85.035156 460.417969 85.035156 460.417969 L 99.921875 437.289062 L 109.390625 428.660156 L 117.960938 423.007812 L 122.226562 427.042969 C 122.226562 427.042969 117.105469 440.59375 117.523438 442.609375 C 117.945312 444.621094 113.125 461.699219 111.199219 463.523438 C 109.28125 465.34375 97.4375 487.5 97.4375 487.5 L 114.285156 465.828125 L 123.21875 436.265625 L 130.054688 428.382812 L 132.726562 445.664062 C 132.726562 445.664062 127.996094 484.039062 127.355469 487.28125 C 126.722656 490.523438 120.988281 508.347656 120.988281 508.347656 L 133.316406 481.191406 L 135.75 460.648438 L 137.097656 434.625 L 140.980469 443.347656 L 143.121094 471.453125 L 147.375 497.105469 L 148.238281 476.09375 L 147.644531 457.574219 C 147.644531 457.574219 139.445312 420.113281 136.59375 411.332031 C 133.75 402.554688 129.789062 395.609375 123.609375 395.714844 C 117.425781 395.820312 115.460938 400.632812 115.460938 400.632812 L 59.574219 443.65625 "/>
</g>
</g>
</g>
<g clip-path="url(#clip149)" clip-rule="nonzero">
<g clip-path="url(#clip150)" clip-rule="nonzero">
<g clip-path="url(#clip151)" clip-rule="nonzero">
<path style=" stroke:none;fill-rule:nonzero;fill:rgb(23.919678%,13.328552%,45.878601%);fill-opacity:1;" d="M 139.757812 803.84375 L 114.511719 772.703125 L 92.617188 711.179688 L 130.742188 655.4375 L 139.496094 614.84375 L 157.492188 576.007812 L 170.390625 532.203125 L 175.097656 537.0625 L 212.019531 619.257812 L 231.996094 720.019531 L 163.226562 751.738281 L 161.304688 766.601562 L 139.757812 803.84375 "/>
</g>
</g>
</g>
<g clip-path="url(#clip152)" clip-rule="nonzero">
<g clip-path="url(#clip153)" clip-rule="nonzero">
<g clip-path="url(#clip154)" clip-rule="nonzero">
<path style=" stroke:none;fill-rule:nonzero;fill:rgb(23.919678%,13.328552%,45.878601%);fill-opacity:1;" d="M -0.328125 775.746094 L 73.191406 615.386719 L 71.976562 566.636719 L 61.640625 523.355469 L 51.550781 496.285156 C 51.550781 496.285156 43.40625 487.46875 42.605469 486.71875 C 41.800781 485.957031 15.804688 473.210938 15.804688 473.210938 L 10.089844 497.222656 L 3.757812 513.066406 L -15.074219 536.207031 L -7.917969 566.164062 L -9.574219 590.371094 L -11.515625 603.910156 L -0.328125 775.746094 "/>
</g>
</g>
</g>
<g clip-path="url(#clip155)" clip-rule="nonzero">
<g clip-path="url(#clip156)" clip-rule="nonzero">
<g clip-path="url(#clip157)" clip-rule="nonzero">
<path style=" stroke:none;fill-rule:nonzero;fill:rgb(69.799805%,64.309692%,91.758728%);fill-opacity:1;" d="M 100.117188 586.46875 L 129.980469 554.652344 L 153.671875 539.847656 L 160.972656 522.496094 L 175.097656 537.0625 L 212.019531 619.257812 L 189.980469 582.054688 L 179.066406 563.65625 L 173.226562 546.105469 L 168.707031 538.902344 L 158.082031 552.503906 L 149.90625 550.035156 L 119.085938 573.667969 L 100.117188 586.46875 "/>
</g>
</g>
</g>
<g clip-path="url(#clip158)" clip-rule="nonzero">
<g clip-path="url(#clip159)" clip-rule="nonzero">
<g clip-path="url(#clip160)" clip-rule="nonzero">
<path style=" stroke:none;fill-rule:nonzero;fill:rgb(69.799805%,64.309692%,91.758728%);fill-opacity:1;" d="M -53.359375 511.449219 L 3.484375 464.597656 L 24.230469 470.867188 L 50.019531 484.320312 L 61.84375 516.722656 C 61.84375 516.722656 75.507812 570.277344 74.933594 572.164062 C 74.363281 574.050781 73.191406 615.386719 73.191406 615.386719 L 67.402344 564.738281 L 55.839844 519.546875 L 40.089844 491.621094 L 18.550781 479.445312 L 10.984375 509.585938 L -15.074219 536.207031 L 2.152344 511.554688 L 9.109375 481.742188 L 3.089844 472.714844 L -21.183594 501.925781 L -53.359375 511.449219 "/>
</g>
</g>
</g>
<g clip-path="url(#clip161)" clip-rule="nonzero">
<g clip-path="url(#clip162)" clip-rule="nonzero">
<g clip-path="url(#clip163)" clip-rule="nonzero">
<path style=" stroke:none;fill-rule:nonzero;fill:rgb(23.919678%,13.328552%,45.878601%);fill-opacity:1;" d="M 193.261719 872.011719 L 193.929688 868.097656 L 212.007812 845.761719 L 234.105469 794.789062 L 231.867188 759.617188 L 232.566406 740.269531 L 250.660156 747.96875 L 266.164062 767.066406 L 279.71875 798.277344 L 287.558594 816.601562 L 307.121094 859.714844 L 311.054688 870.550781 L 317.765625 909.644531 L 193.261719 872.011719 "/>
</g>
</g>
</g>
<g clip-path="url(#clip164)" clip-rule="nonzero">
<g clip-path="url(#clip165)" clip-rule="nonzero">
<g clip-path="url(#clip166)" clip-rule="nonzero">
<path style=" stroke:none;fill-rule:nonzero;fill:rgb(69.799805%,64.309692%,91.758728%);fill-opacity:1;" d="M 163.226562 751.738281 L 231.996094 720.019531 L 271.175781 760.691406 L 307.121094 859.714844 L 283.050781 811.640625 L 266.625 792.777344 L 260.78125 767.84375 L 248.398438 754.316406 L 232.566406 740.269531 L 231.867188 759.617188 L 234.105469 794.789062 C 234.105469 794.789062 213.992188 844.304688 212.007812 845.761719 C 210.023438 847.222656 193.929688 868.097656 193.929688 868.097656 L 210.898438 834.101562 L 222.757812 806.796875 L 218.378906 756.566406 L 219.839844 736.421875 L 183.515625 752.722656 L 139.757812 803.84375 L 161.304688 766.601562 L 163.226562 751.738281 "/>
</g>
</g>
</g>
</g>
</svg>
